<svg height="100%" style="fill-rule:evenodd;clip-rule:evenodd;stroke-linejoin:round;stroke-miterlimit:2;" version="1.1" viewBox="0 0 24 24" width="100%" ><g id="Icon"><path fill="currentColor" d="M21.75,8c-0,-2.623 -2.127,-4.75 -4.75,-4.75c-2.977,0 -7.023,0 -10,0c-2.623,-0 -4.75,2.127 -4.75,4.75c-0,2.443 -0,5.557 -0,8c0,2.623 2.127,4.75 4.75,4.75c2.977,0 7.023,0 10,0c2.623,0 4.75,-2.127 4.75,-4.75l-0,-8Zm-1.5,-0c-0,-1.795 -1.455,-3.25 -3.25,-3.25c-2.977,0 -7.023,0 -10,-0c-1.795,-0 -3.25,1.455 -3.25,3.25c-0,2.443 -0,5.557 -0,8c0,1.795 1.455,3.25 3.25,3.25c2.977,0 7.023,0 10,0c1.795,0 3.25,-1.455 3.25,-3.25l-0,-8Z"/><path fill="currentColor" d="M5.452,8.722c-0,-0 2.384,1.963 4.164,3.429c1.385,1.141 3.383,1.141 4.768,0c1.757,-1.447 4.093,-3.37 4.093,-3.37c0.319,-0.264 0.365,-0.737 0.102,-1.056c-0.263,-0.32 -0.736,-0.365 -1.056,-0.102c0,-0 -2.336,1.924 -4.093,3.37c-0.83,0.685 -2.03,0.685 -2.86,0c-1.781,-1.466 -4.165,-3.429 -4.165,-3.429c-0.319,-0.263 -0.792,-0.217 -1.055,0.102c-0.264,0.32 -0.218,0.793 0.102,1.056Z"/></g></svg>
